<svg width="182" height="34" viewBox="0 0 182 34" fill="none" xmlns="http://www.w3.org/2000/svg">
<path d="M34.7808 3.48433C32.8253 1.38077 30.1419 0.222229 27.2245 0.222229C25.0439 0.222229 23.0468 0.905978 21.2886 2.25432C20.4015 2.93493 19.5976 3.7676 18.8889 4.73949C18.1804 3.76789 17.3763 2.93493 16.4889 2.25432C14.731 0.905978 12.7339 0.222229 10.5532 0.222229C7.63585 0.222229 4.95222 1.38077 2.99664 3.48433C1.0644 5.5633 0 8.40349 0 11.4821C0 14.6507 1.19064 17.5512 3.74688 20.6104C6.03363 23.3468 9.32022 26.1247 13.1262 29.3413C14.4258 30.4398 15.8989 31.685 17.4285 33.0113C17.8326 33.3623 18.3511 33.5556 18.8889 33.5556C19.4264 33.5556 19.9452 33.3623 20.3487 33.0119C21.8783 31.6853 23.3523 30.4395 24.6525 29.3404C28.4578 26.1244 31.7444 23.3468 34.0312 20.6101C36.5874 17.5512 37.7778 14.6507 37.7778 11.4818C37.7778 8.40349 36.7134 5.5633 34.7808 3.48433Z" fill="#FF7070"/>
<path d="M62.489 2.11899V4.24249H58.056V6.53649H61.373V8.59799H58.056V13H55.4055V2.11899H62.489Z" fill="#FF7070"/>
<path d="M70.423 13.1085C69.4 13.1085 68.4597 12.8708 67.602 12.3955C66.7547 11.9202 66.0779 11.2588 65.5715 10.4115C65.0755 9.55382 64.8275 8.59282 64.8275 7.52849C64.8275 6.46416 65.0755 5.50832 65.5715 4.66099C66.0779 3.81366 66.7547 3.15232 67.602 2.67699C68.4597 2.20166 69.4 1.96399 70.423 1.96399C71.446 1.96399 72.3812 2.20166 73.2285 2.67699C74.0862 3.15232 74.7579 3.81366 75.2435 4.66099C75.7395 5.50832 75.9875 6.46416 75.9875 7.52849C75.9875 8.59282 75.7395 9.55382 75.2435 10.4115C74.7475 11.2588 74.0759 11.9202 73.2285 12.3955C72.3812 12.8708 71.446 13.1085 70.423 13.1085ZM70.423 10.6905C71.291 10.6905 71.9834 10.4012 72.5 9.82249C73.027 9.24382 73.2905 8.47916 73.2905 7.52849C73.2905 6.56749 73.027 5.80282 72.5 5.23449C71.9834 4.65582 71.291 4.36649 70.423 4.36649C69.5447 4.36649 68.842 4.65066 68.315 5.21899C67.7984 5.78732 67.54 6.55716 67.54 7.52849C67.54 8.48949 67.7984 9.25932 68.315 9.83799C68.842 10.4063 69.5447 10.6905 70.423 10.6905Z" fill="#FF7070"/>
<path d="M84.4061 13L82.1431 8.89249H81.5076V13H78.8571V2.11899H83.3056C84.1632 2.11899 84.8917 2.26882 85.4911 2.56849C86.1007 2.86816 86.5554 3.28149 86.8551 3.80849C87.1547 4.32516 87.3046 4.90382 87.3046 5.54449C87.3046 6.26782 87.0979 6.91366 86.6846 7.48199C86.2816 8.05032 85.6822 8.45332 84.8866 8.69099L87.3976 13H84.4061ZM81.5076 7.01699H83.1506C83.6362 7.01699 83.9979 6.89816 84.2356 6.66049C84.4836 6.42282 84.6076 6.08699 84.6076 5.65299C84.6076 5.23966 84.4836 4.91416 84.2356 4.67649C83.9979 4.43882 83.6362 4.31999 83.1506 4.31999H81.5076V7.01699Z" fill="#FF7070"/>
<path d="M102.871 2.11899V4.24249H99.9876V13H97.3371V4.24249H94.4541V2.11899H102.871Z" fill="#FF7070"/>
<path d="M115.02 2.11899V13H112.369V8.52049H108.246V13H105.596V2.11899H108.246V6.38149H112.369V2.11899H115.02Z" fill="#FF7070"/>
<path d="M120.979 4.24249V6.44349H124.528V8.48949H120.979V10.8765H124.993V13H118.328V2.11899H124.993V4.24249H120.979Z" fill="#FF7070"/>
<path d="M135.439 10.954H138.911V13H132.789V2.11899H135.439V10.954Z" fill="#FF7070"/>
<path d="M146.716 13.1085C145.693 13.1085 144.753 12.8708 143.895 12.3955C143.048 11.9202 142.371 11.2588 141.865 10.4115C141.369 9.55382 141.121 8.59282 141.121 7.52849C141.121 6.46416 141.369 5.50832 141.865 4.66099C142.371 3.81366 143.048 3.15232 143.895 2.67699C144.753 2.20166 145.693 1.96399 146.716 1.96399C147.739 1.96399 148.674 2.20166 149.522 2.67699C150.379 3.15232 151.051 3.81366 151.537 4.66099C152.033 5.50832 152.281 6.46416 152.281 7.52849C152.281 8.59282 152.033 9.55382 151.537 10.4115C151.041 11.2588 150.369 11.9202 149.522 12.3955C148.674 12.8708 147.739 13.1085 146.716 13.1085ZM146.716 10.6905C147.584 10.6905 148.277 10.4012 148.793 9.82249C149.32 9.24382 149.584 8.47916 149.584 7.52849C149.584 6.56749 149.32 5.80282 148.793 5.23449C148.277 4.65582 147.584 4.36649 146.716 4.36649C145.838 4.36649 145.135 4.65066 144.608 5.21899C144.092 5.78732 143.833 6.55716 143.833 7.52849C143.833 8.48949 144.092 9.25932 144.608 9.83799C145.135 10.4063 145.838 10.6905 146.716 10.6905Z" fill="#FF7070"/>
<path d="M165.365 2.11899L161.505 13H158.188L154.329 2.11899H157.15L159.847 10.334L162.559 2.11899H165.365Z" fill="#FF7070"/>
<path d="M170.518 4.24249V6.44349H174.068V8.48949H170.518V10.8765H174.533V13H167.868V2.11899H174.533V4.24249H170.518Z" fill="#FF7070"/>
<path d="M61.107 33.1085C60.084 33.1085 59.1436 32.8708 58.286 32.3955C57.4386 31.9202 56.7618 31.2588 56.2555 30.4115C55.7595 29.5538 55.5115 28.5928 55.5115 27.5285C55.5115 26.4642 55.7595 25.5083 56.2555 24.661C56.7618 23.8137 57.4386 23.1523 58.286 22.677C59.1436 22.2017 60.084 21.964 61.107 21.964C62.13 21.964 63.0651 22.2017 63.9125 22.677C64.7701 23.1523 65.4418 23.8137 65.9275 24.661C66.4235 25.5083 66.6715 26.4642 66.6715 27.5285C66.6715 28.5928 66.4235 29.5538 65.9275 30.4115C65.4315 31.2588 64.7598 31.9202 63.9125 32.3955C63.0651 32.8708 62.13 33.1085 61.107 33.1085ZM61.107 30.6905C61.975 30.6905 62.6673 30.4012 63.184 29.8225C63.711 29.2438 63.9745 28.4792 63.9745 27.5285C63.9745 26.5675 63.711 25.8028 63.184 25.2345C62.6673 24.6558 61.975 24.3665 61.107 24.3665C60.2286 24.3665 59.526 24.6507 58.999 25.219C58.4823 25.7873 58.224 26.5572 58.224 27.5285C58.224 28.4895 58.4823 29.2593 58.999 29.838C59.526 30.4063 60.2286 30.6905 61.107 30.6905Z" fill="#001E42"/>
<path d="M76.6245 22.119V24.2425H72.1915V26.5365H75.5085V28.598H72.1915V33H69.541V22.119H76.6245Z" fill="#001E42"/>
<path d="M91.9198 22.119V24.2425H89.0368V33H86.3863V24.2425H83.5033V22.119H91.9198Z" fill="#001E42"/>
<path d="M104.069 22.119V33H101.418V28.5205H97.2955V33H94.645V22.119H97.2955V26.3815H101.418V22.119H104.069Z" fill="#001E42"/>
<path d="M110.028 24.2425V26.4435H113.577V28.4895H110.028V30.8765H114.042V33H107.377V22.119H114.042V24.2425H110.028Z" fill="#001E42"/>
<path d="M129.061 25.56C128.864 25.1983 128.58 24.9245 128.208 24.7385C127.847 24.5422 127.418 24.444 126.922 24.444C126.064 24.444 125.377 24.7282 124.86 25.2965C124.344 25.8545 124.085 26.6037 124.085 27.544C124.085 28.5463 124.354 29.3317 124.891 29.9C125.439 30.458 126.188 30.737 127.139 30.737C127.79 30.737 128.337 30.5717 128.782 30.241C129.236 29.9103 129.567 29.435 129.774 28.815H126.41V26.862H132.176V29.3265C131.98 29.9878 131.644 30.6027 131.169 31.171C130.704 31.7393 130.11 32.1992 129.386 32.5505C128.663 32.9018 127.847 33.0775 126.937 33.0775C125.863 33.0775 124.902 32.845 124.054 32.38C123.217 31.9047 122.561 31.2485 122.086 30.4115C121.621 29.5745 121.388 28.6187 121.388 27.544C121.388 26.4693 121.621 25.5135 122.086 24.6765C122.561 23.8292 123.217 23.173 124.054 22.708C124.891 22.2327 125.847 21.995 126.922 21.995C128.224 21.995 129.319 22.3102 130.208 22.9405C131.107 23.5708 131.701 24.444 131.99 25.56H129.061Z" fill="#001E42"/>
<path d="M141.813 31.078H137.752L137.101 33H134.326L138.263 22.119H141.332L145.269 33H142.464L141.813 31.078ZM141.131 29.032L139.782 25.0485L138.449 29.032H141.131Z" fill="#001E42"/>
<path d="M160.185 22.119V33H157.535V26.4745L155.101 33H152.962L150.513 26.459V33H147.863V22.119H150.994L154.047 29.652L157.07 22.119H160.185Z" fill="#001E42"/>
<path d="M166.137 24.2425V26.4435H169.686V28.4895H166.137V30.8765H170.151V33H163.486V22.119H170.151V24.2425H166.137Z" fill="#001E42"/>
<path d="M177.204 33.1085C176.408 33.1085 175.695 32.9793 175.065 32.721C174.435 32.4627 173.928 32.0803 173.546 31.574C173.174 31.0677 172.978 30.458 172.957 29.745H175.778C175.819 30.148 175.959 30.458 176.196 30.675C176.434 30.8817 176.744 30.985 177.126 30.985C177.519 30.985 177.829 30.8972 178.056 30.7215C178.284 30.5355 178.397 30.2823 178.397 29.962C178.397 29.6933 178.304 29.4712 178.118 29.2955C177.943 29.1198 177.721 28.9752 177.452 28.8615C177.194 28.7478 176.822 28.6187 176.336 28.474C175.633 28.257 175.06 28.04 174.615 27.823C174.171 27.606 173.789 27.2857 173.468 26.862C173.148 26.4383 172.988 25.8855 172.988 25.2035C172.988 24.1908 173.355 23.4003 174.088 22.832C174.822 22.2533 175.778 21.964 176.956 21.964C178.155 21.964 179.121 22.2533 179.854 22.832C180.588 23.4003 180.981 24.196 181.032 25.219H178.165C178.144 24.8677 178.015 24.5938 177.777 24.3975C177.54 24.1908 177.235 24.0875 176.863 24.0875C176.543 24.0875 176.284 24.1753 176.088 24.351C175.892 24.5163 175.793 24.7592 175.793 25.0795C175.793 25.4308 175.959 25.7047 176.289 25.901C176.62 26.0973 177.137 26.3092 177.839 26.5365C178.542 26.7742 179.11 27.0015 179.544 27.2185C179.989 27.4355 180.371 27.7507 180.691 28.164C181.012 28.5773 181.172 29.1095 181.172 29.7605C181.172 30.3805 181.012 30.9437 180.691 31.45C180.381 31.9563 179.927 32.3593 179.327 32.659C178.728 32.9587 178.02 33.1085 177.204 33.1085Z" fill="#001E42"/>
</svg>
